PathFileType	4	(X/Y/Z)	D:\TRACE\spotREDO_2-26-24\spot_justArm_Motion_3_1-platform.trc
DataRate	CameraRate	NumFrames	NumMarkers	Units	OrigDataRate	OrigDataStartFrame	OrigNumFrames
100.00	100.00	      49	5	mm	100.00	3501	      7000
Frame#	Time	Left_Front			Right_Front			Left_Aft			Right_Aft			Post			
		X1	Y1	Z1	X2	Y2	Z2	X3	Y3	Z3	X4	Y4	Z4	X5	Y5	Z5	

3501	35.000	-669.22729	-16.95711	-578.65088	745.47974	-5.90619	-494.38904	-740.69135	18.41032	639.81097	828.75916	25.04528	644.02570	40.29105	601.23322	-999.21783	
3502	35.010	-669.20471	-16.92662	-578.65118	745.49457	-5.87529	-494.36102	-740.65387	18.37179	639.84088	828.81000	24.99357	644.01672	40.35608	601.32959	-998.98322	
3503	35.020	-669.17694	-16.88116	-578.62842	745.48883	-5.88738	-494.31519	-740.64490	18.37377	639.83307	828.89709	24.92204	644.03699	40.31496	601.40625	-998.79584	
3504	35.030	-669.17297	-16.82139	-578.67493	745.52094	-5.84111	-494.37402	-740.67181	18.36225	639.83594	828.64716	24.71440	644.40436	39.82837	601.54370	-998.87415	
3505	35.040	-669.11487	-16.78991	-578.62457	745.50470	-5.84531	-494.35260	-740.62231	18.22004	639.88879	828.76337	24.67150	644.47559	39.80974	601.67700	-998.72418	
3506	35.050	-669.10785	-16.73116	-578.62030	745.49542	-5.78797	-494.36017	-740.59796	18.05047	639.94110	828.78864	24.58072	644.49689	39.82107	601.81744	-998.59027	
3507	35.060	-669.11163	-16.62927	-578.61115	745.50775	-5.70320	-494.29126	-740.55609	17.95413	640.01178	828.82690	24.45926	644.55078	39.88297	601.96857	-998.53967	
3508	35.070	-669.12213	-16.51951	-578.57379	745.51685	-5.60448	-494.31479	-740.51062	17.85134	640.01447	828.73218	24.37497	644.55811	39.90976	602.13171	-998.47668	
3509	35.080	-669.19086	-16.32495	-578.63776	745.46881	-5.54509	-494.36920	-740.45001	17.62931	640.06812	828.63312	24.42679	644.59680	39.92807	602.26392	-998.41260	
3510	35.090	-669.17181	-16.21131	-578.60480	745.45380	-5.51029	-494.33191	-740.36310	17.35645	640.19177	828.58307	24.27818	644.61877	39.89536	602.39838	-998.32281	
3511	35.100	-669.25061	-16.04410	-578.64288	745.50415	-5.36598	-494.24988	-740.34711	17.09738	640.30396	828.50287	24.07969	644.62787	39.89978	602.75513	-998.20166	
3512	35.110	-669.26154	-15.80248	-578.65930	745.48364	-5.25530	-494.17517	-740.40472	16.96282	640.34070	828.44812	23.85541	644.69287	39.90524	603.12378	-998.10706	
3513	35.120	-669.29559	-15.61927	-578.56488	745.45148	-5.03451	-494.01587	-740.49200	16.88423	640.34784	828.45123	23.79915	644.71832	39.75116	603.46588	-997.90472	
3514	35.130	-669.23975	-15.39691	-578.44720	745.43896	-4.89716	-493.92807	-740.54358	16.74897	640.34161	828.44995	23.41037	644.70496	40.04760	603.90778	-997.40485	
3515	35.140	-669.16461	-15.12495	-578.26306	745.44781	-4.65697	-493.88794	-740.62463	16.55134	640.38751	828.44580	23.09573	644.68976	40.34022	604.51617	-996.88513	
3516	35.150	-669.23120	-14.77159	-578.14136	745.49805	-4.25763	-493.67398	-740.73718	16.12678	640.37006	828.48193	22.89159	644.86896	40.16506	604.92029	-996.47650	
3517	35.160	-669.20270	-14.48165	-578.09088	745.56238	-3.90166	-493.58658	-740.60736	15.90356	640.51501	828.70587	22.60682	644.96796	40.18887	605.44513	-995.81488	
3518	35.170	-669.09576	-14.19916	-578.08551	745.52997	-3.58089	-493.53122	-740.54401	15.46195	640.62897	828.66077	22.31132	645.05902	39.87321	605.91150	-995.18909	
3519	35.180	-669.14789	-13.96351	-578.07214	745.47449	-3.25721	-493.51727	-740.55328	14.98792	640.79242	828.67975	21.75604	645.12415	40.40527	606.42706	-994.43811	
3520	35.190	-669.32758	-13.69024	-577.92133	745.45575	-3.19913	-493.37665	-740.58289	14.73054	640.89539	828.57690	21.33645	645.24280	40.72586	607.66895	-993.98999	
3521	35.200	-669.57013	-13.20555	-577.86066	745.31604	-2.90819	-493.41531	-740.70648	14.43379	640.97467	828.52191	21.26019	645.33148	40.16866	607.97504	-993.97772	
3522	35.210	-669.71185	-12.80448	-577.75433	745.16882	-2.60356	-493.37634	-741.00531	13.97355	640.91602	828.29932	21.03906	645.40491	39.80442	608.57947	-993.78552	
3523	35.220	-669.88495	-12.58200	-577.70337	745.07318	-2.24295	-493.24402	-741.14233	13.78121	641.08289	827.93188	20.63910	645.50806	39.59077	608.96289	-993.48480	
3524	35.230	-670.03125	-12.30608	-577.69989	744.92993	-1.95611	-493.28098	-741.13977	13.50265	641.24689	828.10736	20.12538	645.52106	39.45500	609.53229	-993.22943	
3525	35.240	-670.14893	-11.95437	-577.64203	744.77789	-1.86089	-493.10214	-741.31659	13.22729	641.28082	828.17651	19.56849	645.61786	39.42134	610.13184	-992.95935	
3526	35.250	-670.07428	-11.57063	-577.71588	744.93311	-1.62650	-492.95032	-741.37982	12.90052	641.41425	828.07562	19.32891	645.81659	39.39957	610.49713	-992.83527	
3527	35.260	-670.06805	-11.09258	-577.57782	744.81000	-1.13427	-492.92358	-741.41803	12.26711	641.57373	827.92151	19.08315	645.84052	39.40253	611.27722	-992.10815	
3528	35.270	-670.23596	-10.40069	-577.21960	744.67706	-0.81340	-492.75375	-741.66296	11.74788	641.70612	827.74371	18.52216	645.93597	39.22827	612.04437	-991.56860	
3529	35.280	-670.25848	-10.12911	-577.16437	744.26312	-0.29279	-492.72556	-741.70728	11.36603	641.89111	827.43988	18.07836	646.10657	38.97684	612.72241	-990.78204	
3530	35.290	-670.25281	-9.86674	-577.05536	744.30548	0.07850	-492.48517	-741.82330	10.95088	641.90747	827.09607	17.62682	646.30237	38.90694	613.32037	-990.25677	
3531	35.300	-670.49005	-9.36044	-576.95569	743.87347	0.76363	-492.56213	-741.69397	10.35212	642.02271	827.31824	17.24279	646.51007	39.17672	614.29004	-988.87872	
3532	35.310	-670.74323	-8.79482	-576.82483	743.59442	1.07416	-492.50241	-741.92242	9.90592	642.15009	827.21808	16.69573	646.67993	38.76719	615.02454	-988.25458	
3533	35.320	-671.01312	-8.18297	-576.77826	743.48071	1.46163	-492.18753	-742.12476	9.38775	642.35522	826.72375	16.17827	646.72314	38.18442	615.97980	-987.88446	
3534	35.330	-671.12628	-7.88278	-576.67151	743.51892	1.66542	-492.04633	-742.41956	8.89028	642.44482	826.71460	15.81039	646.83008	38.42945	616.89063	-986.74469	
3535	35.340	-671.13184	-7.44319	-576.40137	743.29340	2.05449	-492.05011	-742.33862	8.55876	642.60394	826.66498	15.09684	647.14899	38.07359	617.69495	-986.28552	
3536	35.350	-671.45062	-6.90626	-576.40588	743.03192	2.46353	-491.92328	-742.48383	8.00648	642.81958	826.60571	14.64541	647.34827	37.98013	618.43091	-985.73206	
3537	35.360	-671.72943	-6.17899	-576.23608	743.01263	2.93089	-491.62170	-742.71124	7.33469	643.00171	826.54132	14.40334	647.48645	37.58221	619.34833	-985.18829	
3538	35.370	-672.01141	-5.64809	-576.17816	742.82159	3.72459	-491.58133	-743.04828	6.73613	643.03979	826.01660	13.66323	647.50269	37.27773	620.20148	-984.64398	
3539	35.380	-672.15497	-5.26953	-576.00775	742.75500	4.06937	-491.51672	-743.30286	6.36520	643.11249	825.79883	12.97626	647.62659	37.29648	621.06744	-984.12506	
3540	35.390	-672.35248	-4.87097	-575.75427	742.46649	4.45590	-491.36395	-743.64685	5.88080	643.16351	825.49054	12.46941	647.82227	37.09975	622.05042	-983.64801	
3541	35.400	-672.54565	-4.27557	-575.62616	742.18713	5.03337	-491.35248	-743.62531	5.09837	643.53125	825.49518	12.16443	647.98657	37.12720	622.61871	-983.07434	
3542	35.410	-672.55157	-3.66383	-575.65546	741.98260	5.40325	-491.22803	-743.81268	4.43778	643.79321	825.68207	11.31641	648.23700	36.62190	623.69568	-982.39941	
3543	35.420	-672.78674	-3.08939	-575.37164	741.76129	5.76587	-491.04694	-744.11090	3.91355	643.89307	825.22198	10.85877	648.17737	36.54871	624.59125	-981.60541	
3544	35.430	-673.08185	-2.62097	-575.10522	741.57300	6.17384	-490.65710	-744.41724	3.61879	644.02142	824.74963	10.18440	648.36285	36.08478	625.60028	-980.66046	
3545	35.440	-673.28705	-2.14547	-574.87042	741.26251	6.58343	-490.47763	-744.71198	3.14015	644.23358	824.55347	9.52259	648.42963	35.93246	626.44250	-979.96478	
3546	35.450	-673.82574	-1.36685	-574.89166	740.85779	7.24575	-490.38147	-745.01569	2.19241	644.28870	824.19818	9.14874	648.68787	35.57172	627.55219	-978.83673	
3547	35.460	-674.13647	-0.92469	-574.79291	740.60016	7.92023	-490.41983	-745.12726	1.64104	644.47485	824.05121	8.56390	648.82825	35.25409	628.37714	-978.07672	
3548	35.470	-674.44849	-0.34656	-574.67291	740.44244	8.27586	-490.20224	-745.36371	1.08730	644.51666	823.98462	7.61595	648.76166	35.10277	629.57294	-977.22223	
3549	35.480	-674.39758	0.28009	-574.51117	740.12738	8.82864	-490.06595	-745.65320	0.40832	644.65912	823.63763	7.17719	648.99170	34.75014	630.45929	-976.24005	
